# Blender v2.79 (sub 0) OBJ File: 'hex_prism_1.blend'
# www.blender.org
mtllib hex_prism_1.mtl
o Cube
v 0.000000 -0.500000 -0.500000
v 0.000000 0.500000 -0.500000
v 0.433013 -0.500000 -0.250000
v 0.433013 0.500000 -0.250000
v 0.433013 -0.500000 0.250000
v 0.433013 0.500000 0.250000
v -0.000000 -0.500000 0.500000
v -0.000000 0.500000 0.500000
v -0.433013 -0.500000 0.250000
v -0.433013 0.500000 0.250000
v -0.433013 -0.500000 -0.250000
v -0.433013 0.500000 -0.250000
vt 0.500000 0.333373
vt 0.500000 0.000120
vt 0.666627 0.000120
vt 0.666627 0.333373
vt 0.833253 0.000120
vt 0.833253 0.333373
vt 0.999880 0.000120
vt 0.999880 0.333373
vt 0.000120 0.333373
vt 0.000120 0.000120
vt 0.166746 0.000120
vt 0.166746 0.333373
vt 0.288726 0.416926
vt 0.288726 0.583553
vt 0.144423 0.666866
vt 0.000120 0.583553
vt 0.000120 0.416926
vt 0.144423 0.333613
vt 0.333373 0.000120
vt 0.333373 0.333373
vt 0.577571 0.416926
vt 0.577571 0.583553
vt 0.433268 0.666866
vt 0.288965 0.583553
vt 0.288965 0.416926
vt 0.433268 0.333613
vn 0.5000 0.0000 -0.8660
vn 1.0000 0.0000 0.0000
vn 0.5000 0.0000 0.8660
vn -0.5000 0.0000 0.8660
vn 0.0000 1.0000 0.0000
vn -1.0000 0.0000 0.0000
vn -0.5000 0.0000 -0.8660
vn 0.0000 -1.0000 0.0000
usemtl Material
s off
f 1/1/1 2/2/1 4/3/1 3/4/1
f 3/4/2 4/3/2 6/5/2 5/6/2
f 5/6/3 6/5/3 8/7/3 7/8/3
f 7/9/4 8/10/4 10/11/4 9/12/4
f 4/13/5 2/14/5 12/15/5 10/16/5 8/17/5 6/18/5
f 9/12/6 10/11/6 12/19/6 11/20/6
f 11/20/7 12/19/7 2/2/7 1/1/7
f 1/21/8 3/22/8 5/23/8 7/24/8 9/25/8 11/26/8
